# xmcd
#
# Track frame offsets:
#	150
#	11770
#	22910
#	35585
#	51247
#	63927
#	76572
#	90462
#	100872
#	113280
#	124227
#	135357
#	147705
#	159977
#	169665
#	181957
#	198225
#	210467
#	223520
#	235737
#
# Disc length: 3355 seconds
#
# Revision: 1
# Processed by: cddbd v1.5.2PL0 Copyright (c) Steve Scherf et al.
# Submitted via: EasyCDDAExtractor 12.0.4.1
#
DISCID=fc0d1914
DTITLE=anderson, Bill - 20 Greatest Hits
DYEAR=2005
DGENRE=Country
TTITLE0=The Tip Of My Fingers
TTITLE1=Walk Out Backwards
TTITLE2=Po´Folks
TTITLE3=Mama Sang A Song
TTITLE4=Still
TTITLE5=8 X 10
TTITLE6=Five Little Fingers
TTITLE7=I Get The Fever
TTITLE8=For Loving You
TTITLE9=Wild Week - End
TTITLE10=Happy State Of Mind
TTITLE11=My Life
TTITLE12=But You Know I Love You
TTITLE13=Don´t She Look Good
TTITLE14=If You Can Live With It
TTITLE15=The Corner Of My Life
TTITLE16=World Of Make Believe
TTITLE17=Sometimes
TTITLE18=Liars One, Believers Zero
TTITLE19=I Can´t Wait Any Longer
EXTD=
EXTT0=
EXTT1=
EXTT2=
EXTT3=
EXTT4=
EXTT5=
EXTT6=
EXTT7=
EXTT8=
EXTT9=
EXTT10=
EXTT11=
EXTT12=
EXTT13=
EXTT14=
EXTT15=
EXTT16=
EXTT17=
EXTT18=
EXTT19=
PLAYORDER=
